<svg width="222" height="46" viewBox="0 0 222 46" fill="none" xmlns="http://www.w3.org/2000/svg">
<g filter="url(#filter0_d_274_3)">
<rect x="1" y="1" width="218" height="42" rx="20" fill="white" fill-opacity="0.6" shape-rendering="crispEdges"/>
</g>
<path d="M48.9837 15.04V29H46.1837V15.04H48.9837ZM57.8901 17.76C59.2101 17.76 60.2768 18.18 61.0901 19.02C61.9035 19.8467 62.3101 21.0067 62.3101 22.5V29H59.5101V22.88C59.5101 22 59.2901 21.3267 58.8501 20.86C58.4101 20.38 57.8101 20.14 57.0501 20.14C56.2768 20.14 55.6635 20.38 55.2101 20.86C54.7701 21.3267 54.5501 22 54.5501 22.88V29H51.7501V17.92H54.5501V19.3C54.9235 18.82 55.3968 18.4467 55.9701 18.18C56.5568 17.9 57.1968 17.76 57.8901 17.76ZM66.3928 16.6C65.8994 16.6 65.4861 16.4467 65.1528 16.14C64.8328 15.82 64.6728 15.4267 64.6728 14.96C64.6728 14.4933 64.8328 14.1067 65.1528 13.8C65.4861 13.48 65.8994 13.32 66.3928 13.32C66.8861 13.32 67.2928 13.48 67.6128 13.8C67.9461 14.1067 68.1128 14.4933 68.1128 14.96C68.1128 15.4267 67.9461 15.82 67.6128 16.14C67.2928 16.4467 66.8861 16.6 66.3928 16.6ZM67.7728 17.92V29H64.9728V17.92H67.7728ZM69.8192 23.46C69.8192 22.3133 70.0525 21.3133 70.5192 20.46C70.9858 19.5933 71.6325 18.9267 72.4592 18.46C73.2858 17.98 74.2325 17.74 75.2992 17.74C76.6725 17.74 77.8058 18.0867 78.6992 18.78C79.6058 19.46 80.2125 20.42 80.5192 21.66H77.4992C77.3392 21.18 77.0658 20.8067 76.6792 20.54C76.3058 20.26 75.8392 20.12 75.2792 20.12C74.4792 20.12 73.8458 20.4133 73.3792 21C72.9125 21.5733 72.6792 22.3933 72.6792 23.46C72.6792 24.5133 72.9125 25.3333 73.3792 25.92C73.8458 26.4933 74.4792 26.78 75.2792 26.78C76.4125 26.78 77.1525 26.2733 77.4992 25.26H80.5192C80.2125 26.46 79.6058 27.4133 78.6992 28.12C77.7925 28.8267 76.6592 29.18 75.2992 29.18C74.2325 29.18 73.2858 28.9467 72.4592 28.48C71.6325 28 70.9858 27.3333 70.5192 26.48C70.0525 25.6133 69.8192 24.6067 69.8192 23.46ZM83.9904 16.6C83.4971 16.6 83.0838 16.4467 82.7504 16.14C82.4304 15.82 82.2704 15.4267 82.2704 14.96C82.2704 14.4933 82.4304 14.1067 82.7504 13.8C83.0838 13.48 83.4971 13.32 83.9904 13.32C84.4838 13.32 84.8904 13.48 85.2104 13.8C85.5438 14.1067 85.7104 14.4933 85.7104 14.96C85.7104 15.4267 85.5438 15.82 85.2104 16.14C84.8904 16.4467 84.4838 16.6 83.9904 16.6ZM85.3704 17.92V29H82.5704V17.92H85.3704ZM87.4168 23.42C87.4168 22.3 87.6368 21.3067 88.0768 20.44C88.5302 19.5733 89.1368 18.9067 89.8968 18.44C90.6702 17.9733 91.5302 17.74 92.4768 17.74C93.3035 17.74 94.0235 17.9067 94.6368 18.24C95.2635 18.5733 95.7635 18.9933 96.1368 19.5V17.92H98.9568V29H96.1368V27.38C95.7768 27.9 95.2768 28.3333 94.6368 28.68C94.0102 29.0133 93.2835 29.18 92.4568 29.18C91.5235 29.18 90.6702 28.94 89.8968 28.46C89.1368 27.98 88.5302 27.3067 88.0768 26.44C87.6368 25.56 87.4168 24.5533 87.4168 23.42ZM96.1368 23.46C96.1368 22.78 96.0035 22.2 95.7368 21.72C95.4702 21.2267 95.1102 20.8533 94.6568 20.6C94.2035 20.3333 93.7168 20.2 93.1968 20.2C92.6768 20.2 92.1968 20.3267 91.7568 20.58C91.3168 20.8333 90.9568 21.2067 90.6768 21.7C90.4102 22.18 90.2768 22.7533 90.2768 23.42C90.2768 24.0867 90.4102 24.6733 90.6768 25.18C90.9568 25.6733 91.3168 26.0533 91.7568 26.32C92.2102 26.5867 92.6902 26.72 93.1968 26.72C93.7168 26.72 94.2035 26.5933 94.6568 26.34C95.1102 26.0733 95.4702 25.7 95.7368 25.22C96.0035 24.7267 96.1368 24.14 96.1368 23.46ZM110.697 29.18C109.79 29.18 108.977 29.02 108.257 28.7C107.537 28.3667 106.964 27.92 106.537 27.36C106.124 26.8 105.897 26.18 105.857 25.5H108.677C108.73 25.9267 108.937 26.28 109.297 26.56C109.67 26.84 110.13 26.98 110.677 26.98C111.21 26.98 111.624 26.8733 111.917 26.66C112.224 26.4467 112.377 26.1733 112.377 25.84C112.377 25.48 112.19 25.2133 111.817 25.04C111.457 24.8533 110.877 24.6533 110.077 24.44C109.25 24.24 108.57 24.0333 108.037 23.82C107.517 23.6067 107.064 23.28 106.677 22.84C106.304 22.4 106.117 21.8067 106.117 21.06C106.117 20.4467 106.29 19.8867 106.637 19.38C106.997 18.8733 107.504 18.4733 108.157 18.18C108.824 17.8867 109.604 17.74 110.497 17.74C111.817 17.74 112.87 18.0733 113.657 18.74C114.444 19.3933 114.877 20.28 114.957 21.4H112.277C112.237 20.96 112.05 20.6133 111.717 20.36C111.397 20.0933 110.964 19.96 110.417 19.96C109.91 19.96 109.517 20.0533 109.237 20.24C108.97 20.4267 108.837 20.6867 108.837 21.02C108.837 21.3933 109.024 21.68 109.397 21.88C109.77 22.0667 110.35 22.26 111.137 22.46C111.937 22.66 112.597 22.8667 113.117 23.08C113.637 23.2933 114.084 23.6267 114.457 24.08C114.844 24.52 115.044 25.1067 115.057 25.84C115.057 26.48 114.877 27.0533 114.517 27.56C114.17 28.0667 113.664 28.4667 112.997 28.76C112.344 29.04 111.577 29.18 110.697 29.18ZM127.656 23.22C127.656 23.62 127.629 23.98 127.576 24.3H119.476C119.542 25.1 119.822 25.7267 120.316 26.18C120.809 26.6333 121.416 26.86 122.136 26.86C123.176 26.86 123.916 26.4133 124.356 25.52H127.376C127.056 26.5867 126.442 27.4667 125.536 28.16C124.629 28.84 123.516 29.18 122.196 29.18C121.129 29.18 120.169 28.9467 119.316 28.48C118.476 28 117.816 27.3267 117.336 26.46C116.869 25.5933 116.636 24.5933 116.636 23.46C116.636 22.3133 116.869 21.3067 117.336 20.44C117.802 19.5733 118.456 18.9067 119.296 18.44C120.136 17.9733 121.102 17.74 122.196 17.74C123.249 17.74 124.189 17.9667 125.016 18.42C125.856 18.8733 126.502 19.52 126.956 20.36C127.422 21.1867 127.656 22.14 127.656 23.22ZM124.756 22.42C124.742 21.7 124.482 21.1267 123.976 20.7C123.469 20.26 122.849 20.04 122.116 20.04C121.422 20.04 120.836 20.2533 120.356 20.68C119.889 21.0933 119.602 21.6733 119.496 22.42H124.756ZM133.939 29.18C133.033 29.18 132.219 29.02 131.499 28.7C130.779 28.3667 130.206 27.92 129.779 27.36C129.366 26.8 129.139 26.18 129.099 25.5H131.919C131.973 25.9267 132.179 26.28 132.539 26.56C132.913 26.84 133.373 26.98 133.919 26.98C134.453 26.98 134.866 26.8733 135.159 26.66C135.466 26.4467 135.619 26.1733 135.619 25.84C135.619 25.48 135.433 25.2133 135.059 25.04C134.699 24.8533 134.119 24.6533 133.319 24.44C132.493 24.24 131.813 24.0333 131.279 23.82C130.759 23.6067 130.306 23.28 129.919 22.84C129.546 22.4 129.359 21.8067 129.359 21.06C129.359 20.4467 129.533 19.8867 129.879 19.38C130.239 18.8733 130.746 18.4733 131.399 18.18C132.066 17.8867 132.846 17.74 133.739 17.74C135.059 17.74 136.113 18.0733 136.899 18.74C137.686 19.3933 138.119 20.28 138.199 21.4H135.519C135.479 20.96 135.293 20.6133 134.959 20.36C134.639 20.0933 134.206 19.96 133.659 19.96C133.153 19.96 132.759 20.0533 132.479 20.24C132.213 20.4267 132.079 20.6867 132.079 21.02C132.079 21.3933 132.266 21.68 132.639 21.88C133.013 22.0667 133.593 22.26 134.379 22.46C135.179 22.66 135.839 22.8667 136.359 23.08C136.879 23.2933 137.326 23.6267 137.699 24.08C138.086 24.52 138.286 25.1067 138.299 25.84C138.299 26.48 138.119 27.0533 137.759 27.56C137.413 28.0667 136.906 28.4667 136.239 28.76C135.586 29.04 134.819 29.18 133.939 29.18ZM142.018 16.6C141.524 16.6 141.111 16.4467 140.778 16.14C140.458 15.82 140.298 15.4267 140.298 14.96C140.298 14.4933 140.458 14.1067 140.778 13.8C141.111 13.48 141.524 13.32 142.018 13.32C142.511 13.32 142.918 13.48 143.238 13.8C143.571 14.1067 143.738 14.4933 143.738 14.96C143.738 15.4267 143.571 15.82 143.238 16.14C142.918 16.4467 142.511 16.6 142.018 16.6ZM143.398 17.92V29H140.598V17.92H143.398ZM151.084 29.18C150.018 29.18 149.058 28.9467 148.204 28.48C147.351 28 146.678 27.3267 146.184 26.46C145.704 25.5933 145.464 24.5933 145.464 23.46C145.464 22.3267 145.711 21.3267 146.204 20.46C146.711 19.5933 147.398 18.9267 148.264 18.46C149.131 17.98 150.098 17.74 151.164 17.74C152.231 17.74 153.198 17.98 154.064 18.46C154.931 18.9267 155.611 19.5933 156.104 20.46C156.611 21.3267 156.864 22.3267 156.864 23.46C156.864 24.5933 156.604 25.5933 156.084 26.46C155.578 27.3267 154.884 28 154.004 28.48C153.138 28.9467 152.164 29.18 151.084 29.18ZM151.084 26.74C151.591 26.74 152.064 26.62 152.504 26.38C152.958 26.1267 153.318 25.7533 153.584 25.26C153.851 24.7667 153.984 24.1667 153.984 23.46C153.984 22.4067 153.704 21.6 153.144 21.04C152.598 20.4667 151.924 20.18 151.124 20.18C150.324 20.18 149.651 20.4667 149.104 21.04C148.571 21.6 148.304 22.4067 148.304 23.46C148.304 24.5133 148.564 25.3267 149.084 25.9C149.618 26.46 150.284 26.74 151.084 26.74ZM153.464 14.9L148.864 17V15L153.464 12.62V14.9ZM165.058 17.76C166.378 17.76 167.445 18.18 168.258 19.02C169.071 19.8467 169.478 21.0067 169.478 22.5V29H166.678V22.88C166.678 22 166.458 21.3267 166.018 20.86C165.578 20.38 164.978 20.14 164.218 20.14C163.445 20.14 162.831 20.38 162.378 20.86C161.938 21.3267 161.718 22 161.718 22.88V29H158.918V17.92H161.718V19.3C162.091 18.82 162.565 18.4467 163.138 18.18C163.725 17.9 164.365 17.76 165.058 17.76Z" fill="#0045FF"/>
<defs>
<filter id="filter0_d_274_3" x="0" y="0" width="222" height="46" filterUnits="userSpaceOnUse" color-interpolation-filters="sRGB">
<feFlood flood-opacity="0" result="BackgroundImageFix"/>
<feColorMatrix in="SourceAlpha" type="matrix" values="0 0 0 0 0 0 0 0 0 0 0 0 0 0 0 0 0 0 127 0" result="hardAlpha"/>
<feMorphology radius="1" operator="dilate" in="SourceAlpha" result="effect1_dropShadow_274_3"/>
<feOffset dx="1" dy="1"/>
<feGaussianBlur stdDeviation="0.5"/>
<feComposite in2="hardAlpha" operator="out"/>
<feColorMatrix type="matrix" values="0 0 0 0 0 0 0 0 0 0 0 0 0 0 0 0 0 0 0.25 0"/>
<feBlend mode="normal" in2="BackgroundImageFix" result="effect1_dropShadow_274_3"/>
<feBlend mode="normal" in="SourceGraphic" in2="effect1_dropShadow_274_3" result="shape"/>
</filter>
</defs>
</svg>
