<svg width="220" height="49" viewBox="0 0 220 49" fill="none" xmlns="http://www.w3.org/2000/svg">
<g filter="url(#filter0_d_274_4)">
<rect width="218" height="46" rx="20" fill="#0045FF"/>
</g>
<path d="M35.066 30L31.986 24.56H30.666V30H27.866V16.04H33.106C34.186 16.04 35.106 16.2333 35.866 16.62C36.626 16.9933 37.1926 17.5067 37.566 18.16C37.9526 18.8 38.146 19.52 38.146 20.32C38.146 21.24 37.8793 22.0733 37.346 22.82C36.8126 23.5533 36.0193 24.06 34.966 24.34L38.306 30H35.066ZM30.666 22.46H33.006C33.766 22.46 34.3326 22.28 34.706 21.92C35.0793 21.5467 35.266 21.0333 35.266 20.38C35.266 19.74 35.0793 19.2467 34.706 18.9C34.3326 18.54 33.766 18.36 33.006 18.36H30.666V22.46ZM50.9785 24.22C50.9785 24.62 50.9518 24.98 50.8985 25.3H42.7985C42.8651 26.1 43.1451 26.7267 43.6385 27.18C44.1318 27.6333 44.7385 27.86 45.4585 27.86C46.4985 27.86 47.2385 27.4133 47.6785 26.52H50.6985C50.3785 27.5867 49.7651 28.4667 48.8585 29.16C47.9518 29.84 46.8385 30.18 45.5185 30.18C44.4518 30.18 43.4918 29.9467 42.6385 29.48C41.7985 29 41.1385 28.3267 40.6585 27.46C40.1918 26.5933 39.9585 25.5933 39.9585 24.46C39.9585 23.3133 40.1918 22.3067 40.6585 21.44C41.1251 20.5733 41.7785 19.9067 42.6185 19.44C43.4585 18.9733 44.4251 18.74 45.5185 18.74C46.5718 18.74 47.5118 18.9667 48.3385 19.42C49.1785 19.8733 49.8251 20.52 50.2785 21.36C50.7451 22.1867 50.9785 23.14 50.9785 24.22ZM48.0785 23.42C48.0651 22.7 47.8051 22.1267 47.2985 21.7C46.7918 21.26 46.1718 21.04 45.4385 21.04C44.7451 21.04 44.1585 21.2533 43.6785 21.68C43.2118 22.0933 42.9251 22.6733 42.8185 23.42H48.0785ZM57.3622 18.74C58.1889 18.74 58.9155 18.9067 59.5422 19.24C60.1689 19.56 60.6622 19.98 61.0222 20.5V18.92H63.8422V30.08C63.8422 31.1067 63.6355 32.02 63.2222 32.82C62.8089 33.6333 62.1889 34.2733 61.3622 34.74C60.5355 35.22 59.5355 35.46 58.3622 35.46C56.7889 35.46 55.4955 35.0933 54.4822 34.36C53.4822 33.6267 52.9155 32.6267 52.7822 31.36H55.5622C55.7089 31.8667 56.0222 32.2667 56.5022 32.56C56.9955 32.8667 57.5889 33.02 58.2822 33.02C59.0955 33.02 59.7555 32.7733 60.2622 32.28C60.7689 31.8 61.0222 31.0667 61.0222 30.08V28.36C60.6622 28.88 60.1622 29.3133 59.5222 29.66C58.8955 30.0067 58.1755 30.18 57.3622 30.18C56.4289 30.18 55.5755 29.94 54.8022 29.46C54.0289 28.98 53.4155 28.3067 52.9622 27.44C52.5222 26.56 52.3022 25.5533 52.3022 24.42C52.3022 23.3 52.5222 22.3067 52.9622 21.44C53.4155 20.5733 54.0222 19.9067 54.7822 19.44C55.5555 18.9733 56.4155 18.74 57.3622 18.74ZM61.0222 24.46C61.0222 23.78 60.8889 23.2 60.6222 22.72C60.3555 22.2267 59.9955 21.8533 59.5422 21.6C59.0889 21.3333 58.6022 21.2 58.0822 21.2C57.5622 21.2 57.0822 21.3267 56.6422 21.58C56.2022 21.8333 55.8422 22.2067 55.5622 22.7C55.2955 23.18 55.1622 23.7533 55.1622 24.42C55.1622 25.0867 55.2955 25.6733 55.5622 26.18C55.8422 26.6733 56.2022 27.0533 56.6422 27.32C57.0955 27.5867 57.5755 27.72 58.0822 27.72C58.6022 27.72 59.0889 27.5933 59.5422 27.34C59.9955 27.0733 60.3555 26.7 60.6222 26.22C60.8889 25.7267 61.0222 25.14 61.0222 24.46ZM67.9969 17.6C67.5036 17.6 67.0902 17.4467 66.7569 17.14C66.4369 16.82 66.2769 16.4267 66.2769 15.96C66.2769 15.4933 66.4369 15.1067 66.7569 14.8C67.0902 14.48 67.5036 14.32 67.9969 14.32C68.4902 14.32 68.8969 14.48 69.2169 14.8C69.5502 15.1067 69.7169 15.4933 69.7169 15.96C69.7169 16.4267 69.5502 16.82 69.2169 17.14C68.8969 17.4467 68.4902 17.6 67.9969 17.6ZM69.3769 18.92V30H66.5769V18.92H69.3769ZM76.3833 30.18C75.4766 30.18 74.6633 30.02 73.9433 29.7C73.2233 29.3667 72.65 28.92 72.2233 28.36C71.81 27.8 71.5833 27.18 71.5433 26.5H74.3633C74.4166 26.9267 74.6233 27.28 74.9833 27.56C75.3566 27.84 75.8166 27.98 76.3633 27.98C76.8966 27.98 77.31 27.8733 77.6033 27.66C77.91 27.4467 78.0633 27.1733 78.0633 26.84C78.0633 26.48 77.8766 26.2133 77.5033 26.04C77.1433 25.8533 76.5633 25.6533 75.7633 25.44C74.9366 25.24 74.2566 25.0333 73.7233 24.82C73.2033 24.6067 72.75 24.28 72.3633 23.84C71.99 23.4 71.8033 22.8067 71.8033 22.06C71.8033 21.4467 71.9766 20.8867 72.3233 20.38C72.6833 19.8733 73.19 19.4733 73.8433 19.18C74.51 18.8867 75.29 18.74 76.1833 18.74C77.5033 18.74 78.5566 19.0733 79.3433 19.74C80.13 20.3933 80.5633 21.28 80.6433 22.4H77.9633C77.9233 21.96 77.7366 21.6133 77.4033 21.36C77.0833 21.0933 76.65 20.96 76.1033 20.96C75.5966 20.96 75.2033 21.0533 74.9233 21.24C74.6566 21.4267 74.5233 21.6867 74.5233 22.02C74.5233 22.3933 74.71 22.68 75.0833 22.88C75.4566 23.0667 76.0366 23.26 76.8233 23.46C77.6233 23.66 78.2833 23.8667 78.8033 24.08C79.3233 24.2933 79.77 24.6267 80.1433 25.08C80.53 25.52 80.73 26.1067 80.7433 26.84C80.7433 27.48 80.5633 28.0533 80.2033 28.56C79.8566 29.0667 79.35 29.4667 78.6833 29.76C78.03 30.04 77.2633 30.18 76.3833 30.18ZM86.3017 21.22V26.58C86.3017 26.9533 86.3884 27.2267 86.5617 27.4C86.7484 27.56 87.0551 27.64 87.4817 27.64H88.7817V30H87.0217C84.6617 30 83.4817 28.8533 83.4817 26.56V21.22H82.1617V18.92H83.4817V16.18H86.3017V18.92H88.7817V21.22H86.3017ZM93.5956 20.64C93.9556 20.0533 94.4223 19.5933 94.9956 19.26C95.5823 18.9267 96.249 18.76 96.9956 18.76V21.7H96.2556C95.3756 21.7 94.709 21.9067 94.2556 22.32C93.8156 22.7333 93.5956 23.4533 93.5956 24.48V30H90.7956V18.92H93.5956V20.64ZM98.1616 24.42C98.1616 23.3 98.3816 22.3067 98.8216 21.44C99.2749 20.5733 99.8816 19.9067 100.642 19.44C101.415 18.9733 102.275 18.74 103.222 18.74C104.048 18.74 104.768 18.9067 105.382 19.24C106.008 19.5733 106.508 19.9933 106.882 20.5V18.92H109.702V30H106.882V28.38C106.522 28.9 106.022 29.3333 105.382 29.68C104.755 30.0133 104.028 30.18 103.202 30.18C102.268 30.18 101.415 29.94 100.642 29.46C99.8816 28.98 99.2749 28.3067 98.8216 27.44C98.3816 26.56 98.1616 25.5533 98.1616 24.42ZM106.882 24.46C106.882 23.78 106.748 23.2 106.482 22.72C106.215 22.2267 105.855 21.8533 105.402 21.6C104.948 21.3333 104.462 21.2 103.942 21.2C103.422 21.2 102.942 21.3267 102.502 21.58C102.062 21.8333 101.702 22.2067 101.422 22.7C101.155 23.18 101.022 23.7533 101.022 24.42C101.022 25.0867 101.155 25.6733 101.422 26.18C101.702 26.6733 102.062 27.0533 102.502 27.32C102.955 27.5867 103.435 27.72 103.942 27.72C104.462 27.72 104.948 27.5933 105.402 27.34C105.855 27.0733 106.215 26.7 106.482 26.22C106.748 25.7267 106.882 25.14 106.882 24.46ZM115.696 21.22V26.58C115.696 26.9533 115.783 27.2267 115.956 27.4C116.143 27.56 116.45 27.64 116.876 27.64H118.176V30H116.416C114.056 30 112.876 28.8533 112.876 26.56V21.22H111.556V18.92H112.876V16.18H115.696V18.92H118.176V21.22H115.696ZM130.49 24.22C130.49 24.62 130.464 24.98 130.41 25.3H122.31C122.377 26.1 122.657 26.7267 123.15 27.18C123.644 27.6333 124.25 27.86 124.97 27.86C126.01 27.86 126.75 27.4133 127.19 26.52H130.21C129.89 27.5867 129.277 28.4667 128.37 29.16C127.464 29.84 126.35 30.18 125.03 30.18C123.964 30.18 123.004 29.9467 122.15 29.48C121.31 29 120.65 28.3267 120.17 27.46C119.704 26.5933 119.47 25.5933 119.47 24.46C119.47 23.3133 119.704 22.3067 120.17 21.44C120.637 20.5733 121.29 19.9067 122.13 19.44C122.97 18.9733 123.937 18.74 125.03 18.74C126.084 18.74 127.024 18.9667 127.85 19.42C128.69 19.8733 129.337 20.52 129.79 21.36C130.257 22.1867 130.49 23.14 130.49 24.22ZM127.59 23.42C127.577 22.7 127.317 22.1267 126.81 21.7C126.304 21.26 125.684 21.04 124.95 21.04C124.257 21.04 123.67 21.2533 123.19 21.68C122.724 22.0933 122.437 22.6733 122.33 23.42H127.59ZM136.58 24.42C136.58 23.3 136.8 22.3067 137.24 21.44C137.693 20.5733 138.3 19.9067 139.06 19.44C139.833 18.9733 140.693 18.74 141.64 18.74C142.466 18.74 143.186 18.9067 143.8 19.24C144.426 19.5733 144.926 19.9933 145.3 20.5V18.92H148.12V30H145.3V28.38C144.94 28.9 144.44 29.3333 143.8 29.68C143.173 30.0133 142.446 30.18 141.62 30.18C140.686 30.18 139.833 29.94 139.06 29.46C138.3 28.98 137.693 28.3067 137.24 27.44C136.8 26.56 136.58 25.5533 136.58 24.42ZM145.3 24.46C145.3 23.78 145.166 23.2 144.9 22.72C144.633 22.2267 144.273 21.8533 143.82 21.6C143.366 21.3333 142.88 21.2 142.36 21.2C141.84 21.2 141.36 21.3267 140.92 21.58C140.48 21.8333 140.12 22.2067 139.84 22.7C139.573 23.18 139.44 23.7533 139.44 24.42C139.44 25.0867 139.573 25.6733 139.84 26.18C140.12 26.6733 140.48 27.0533 140.92 27.32C141.373 27.5867 141.853 27.72 142.36 27.72C142.88 27.72 143.366 27.5933 143.82 27.34C144.273 27.0733 144.633 26.7 144.9 26.22C145.166 25.7267 145.3 25.14 145.3 24.46ZM150.134 24.44C150.134 23.3333 150.361 22.3533 150.814 21.5C151.281 20.6333 151.908 19.96 152.694 19.48C153.481 19 154.348 18.76 155.294 18.76C156.081 18.76 156.774 18.9133 157.374 19.22C157.988 19.5133 158.481 19.8933 158.854 20.36V18.92H161.674V35.28H158.854V28.48C158.481 28.96 157.981 29.36 157.354 29.68C156.728 30 156.021 30.16 155.234 30.16C154.301 30.16 153.441 29.92 152.654 29.44C151.881 28.9467 151.268 28.2667 150.814 27.4C150.361 26.5333 150.134 25.5467 150.134 24.44ZM158.854 24.46C158.854 23.78 158.714 23.1933 158.434 22.7C158.154 22.2067 157.788 21.8333 157.334 21.58C156.894 21.3267 156.421 21.2 155.914 21.2C155.421 21.2 154.948 21.3267 154.494 21.58C154.054 21.8333 153.694 22.2067 153.414 22.7C153.134 23.18 152.994 23.76 152.994 24.44C152.994 25.12 153.134 25.7133 153.414 26.22C153.694 26.7133 154.054 27.0867 154.494 27.34C154.948 27.5933 155.421 27.72 155.914 27.72C156.421 27.72 156.894 27.5933 157.334 27.34C157.788 27.0867 158.154 26.7133 158.434 26.22C158.714 25.7267 158.854 25.14 158.854 24.46ZM174.869 18.92V30H172.049V28.6C171.689 29.08 171.216 29.46 170.629 29.74C170.056 30.0067 169.429 30.14 168.749 30.14C167.882 30.14 167.116 29.96 166.449 29.6C165.782 29.2267 165.256 28.6867 164.869 27.98C164.496 27.26 164.309 26.4067 164.309 25.42V18.92H167.109V25.02C167.109 25.9 167.329 26.58 167.769 27.06C168.209 27.5267 168.809 27.76 169.569 27.76C170.342 27.76 170.949 27.5267 171.389 27.06C171.829 26.58 172.049 25.9 172.049 25.02V18.92H174.869ZM180.552 18.92V30H177.752V18.92H180.552ZM181.332 16.04L176.732 18.14V16.14L181.332 13.76V16.04ZM187.052 15.8L186.732 25.46H184.372L184.032 15.8H187.052ZM185.612 30.14C185.106 30.14 184.686 29.9867 184.352 29.68C184.032 29.36 183.872 28.9667 183.872 28.5C183.872 28.0333 184.032 27.6467 184.352 27.34C184.686 27.02 185.106 26.86 185.612 26.86C186.106 26.86 186.512 27.02 186.832 27.34C187.152 27.6467 187.312 28.0333 187.312 28.5C187.312 28.9667 187.152 29.36 186.832 29.68C186.512 29.9867 186.106 30.14 185.612 30.14Z" fill="white"/>
<defs>
<filter id="filter0_d_274_4" x="0" y="0" width="220" height="49" filterUnits="userSpaceOnUse" color-interpolation-filters="sRGB">
<feFlood flood-opacity="0" result="BackgroundImageFix"/>
<feColorMatrix in="SourceAlpha" type="matrix" values="0 0 0 0 0 0 0 0 0 0 0 0 0 0 0 0 0 0 127 0" result="hardAlpha"/>
<feOffset dx="1" dy="2"/>
<feGaussianBlur stdDeviation="0.5"/>
<feComposite in2="hardAlpha" operator="out"/>
<feColorMatrix type="matrix" values="0 0 0 0 0 0 0 0 0 0 0 0 0 0 0 0 0 0 0.23 0"/>
<feBlend mode="normal" in2="BackgroundImageFix" result="effect1_dropShadow_274_4"/>
<feBlend mode="normal" in="SourceGraphic" in2="effect1_dropShadow_274_4" result="shape"/>
</filter>
</defs>
</svg>
